# xmcd
#
# Track frame offsets:
#	150
#	13862
#	28607
#	42450
#	57112
#	71895
#	86950
#	101392
#	115465
#	130425
#	146037
#	159000
#	172222
#	184620
#	197200
#	211442
#	224775
#	237852
#	252782
#	266455
#
# Disc length: 3759 seconds
#
# Revision: 0
# Processed by: cddbd v1.4PL0 Copyright (c) Steve Scherf et al.
# Submitted via: dBpowerAMP V4.0
#
DISCID=350ead14
DTITLE=Various Artist - Texas Blues Guitar (1929-1935)
DYEAR=1900
DGENRE=General Blues
TTITLE0=Little Hat Jones - New Two Sixteen Blues
TTITLE1=Little Hat Jones - Two String Blues
TTITLE2=Little Hat Jones - Rolled From Side To Side Blues
TTITLE3=Little Hat Jones - Hurry Blues
TTITLE4=Little Hat Jones - Little Hat Blues
TTITLE5=Little Hat Jones - Corpus Blues
TTITLE6=Little Hat Jones - Kentucky Blues
TTITLE7=Little Hat Jones - Bye Bye Baby Blues
TTITLE8=Little Hat Jones - Cross The Water Blues
TTITLE9=Little Hat Jones - Cherry Street Blues
TTITLE10=J. T. "Funny Paper" Smith - Heart Bleeding Blues
TTITLE11=J. T. "Funny Paper" Smith - Hard Luck Man Blues
TTITLE12=J. T. "Funny Paper" Smith - Howling Wolf Blues - No. 3
TTITLE13=J. T. "Funny Paper" Smith - Howling Wolf Blues - No. 4
TTITLE14=J. T. "Funny Paper" Smith - Wiskeyhead Blues
TTITLE15=J. T. "Funny Paper" Smith - Forty-Five Blues
TTITLE16=J. T. "Funny Paper" Smith - Fool's Blues
TTITLE17=J. T. "Funny Paper" Smith - Before Long
TTITLE18=J. T. "Funny Paper" Smith - Bantam Rooster Blues
TTITLE19=J. T. "Funny Paper" Smith - Ninth Street Stomp
EXTD=william hale
EXTT0=
EXTT1=
EXTT2=
EXTT3=
EXTT4=
EXTT5=
EXTT6=
EXTT7=
EXTT8=
EXTT9=
EXTT10=
EXTT11=
EXTT12=
EXTT13=
EXTT14=
EXTT15=
EXTT16=
EXTT17=
EXTT18=
EXTT19=
PLAYORDER=
